<svg xmlns="http://www.w3.org/2000/svg" xmlns:xlink="http://www.w3.org/1999/xlink" xmlns:lucid="lucid" width="800" height="1256"><g transform="translate(8 8)" lucid:page-tab-id="0_0"><path d="M212 18c0-3.3 2.7-6 6-6h148c3.3 0 6 2.7 6 6v148c0 3.3-2.7 6-6 6H218c-3.3 0-6-2.7-6-6z" stroke="#5e5e5e" stroke-width="3" fill="#fff"/><use xlink:href="#prefix__a" transform="translate(221.444 95.715)"/><use xlink:href="#prefix__b" transform="translate(277 95.715)"/><path d="M185 290c0-3.3 2.7-6 6-6h148c3.3 0 6 2.7 6 6v148c0 3.3-2.7 6-6 6H191c-3.3 0-6-2.7-6-6z" stroke="#5e5e5e" stroke-width="3" fill="#fff"/><use xlink:href="#prefix__c" transform="translate(214.414 353.653)"/><use xlink:href="#prefix__d" transform="translate(234.815 380.32)"/><path d="M681 284c35.35 0 64 35.82 64 80s-28.65 80-64 80H489c-35.35 0-64-35.82-64-80s28.65-80 64-80z" stroke="#5e5e5e" stroke-width="3" fill="#fff"/><use xlink:href="#prefix__e" transform="translate(509.753 367.715)"/><use xlink:href="#prefix__f" transform="translate(617.099 367.715)"/><path d="M319.17 174.5V222c0 3.3 2.68 6 6 6H579c3.3 0 6 2.7 6 6v30" stroke="#5e5e5e" stroke-width="2" fill="none"/><path d="M320.17 174.53h-2v-1.03h2" fill="#5e5e5e"/><path d="M585 279.26L580.36 265h9.28z" stroke="#5e5e5e" stroke-width="2" fill="#5e5e5e"/><path d="M264.83 174.5v53.42c0 .04.04.08.1.08.03 0 .07.04.07.08V264" stroke="#5e5e5e" stroke-width="2" fill="none"/><path d="M265.83 174.53h-2v-1.03h2" fill="#5e5e5e"/><path d="M265 279.26L260.36 265h9.28z" stroke="#5e5e5e" stroke-width="2" fill="#5e5e5e"/><path d="M237.83 446.5v52.92c0 .32.26.58.6.58.3 0 .57.26.57.58V536" stroke="#5e5e5e" stroke-width="2" fill="none"/><path d="M238.83 446.53h-2v-1.03h2" fill="#5e5e5e"/><path d="M239 551.26L234.36 537h9.28z" stroke="#5e5e5e" stroke-width="2" fill="#5e5e5e"/><path d="M159 562c0-3.3 2.7-6 6-6h148c3.3 0 6 2.7 6 6v148c0 3.3-2.7 6-6 6H165c-3.3 0-6-2.7-6-6z" stroke="#5e5e5e" stroke-width="3" fill="#fff"/><use xlink:href="#prefix__g" transform="translate(202.611 639.715)"/><path d="M211.83 718.5v53.42c0 .04.04.08.1.08.03 0 .07.04.07.08V808" stroke="#5e5e5e" stroke-width="2" fill="none"/><path d="M212.83 718.53h-2v-1.03h2" fill="#5e5e5e"/><path d="M212 823.26L207.36 809h9.28z" stroke="#5e5e5e" stroke-width="2" fill="#5e5e5e"/><path d="M161.77 833.57C163 830.5 166.7 828 170 828h106c8.84 0 16 35.82 16 80s-7.16 80-16 80H170c-3.3 0-7-2.5-8.23-5.57l-27.54-68.86c-1.23-3.08-1.23-8.06 0-11.14z" stroke="#5e5e5e" stroke-width="3" fill="#fff"/><use xlink:href="#prefix__h" transform="translate(155.128 911.715)"/><use xlink:href="#prefix__i" transform="translate(197.104 911.715)"/><path d="M266.17 718.5V766c0 3.3 2.68 6 6 6H446c3.3 0 6 2.7 6 6v30" stroke="#5e5e5e" stroke-width="2" fill="none"/><path d="M267.17 718.53h-2v-1.03h2" fill="#5e5e5e"/><path d="M452 823.26L447.36 809h9.28z" stroke="#5e5e5e" stroke-width="2" fill="#5e5e5e"/><path d="M401.77 833.57C403 830.5 406.7 828 410 828h106c8.84 0 16 35.82 16 80s-7.16 80-16 80H410c-3.3 0-7-2.5-8.23-5.57l-27.54-68.86c-1.23-3.08-1.23-8.06 0-11.14z" stroke="#5e5e5e" stroke-width="3" fill="#fff"/><use xlink:href="#prefix__j" transform="translate(437.104 897.653)"/><use xlink:href="#prefix__k" transform="translate(389.845 924.32)"/><path d="M292.17 446.5V494c0 3.3 2.68 6 6 6H686c3.3 0 6 2.7 6 6v30" stroke="#5e5e5e" stroke-width="2" fill="none"/><path d="M293.17 446.53h-2v-1.03h2" fill="#5e5e5e"/><path d="M692 551.26L687.36 537h9.28z" stroke="#5e5e5e" stroke-width="2" fill="#5e5e5e"/><path d="M612 562c0-3.3 2.7-6 6-6h148c3.3 0 6 2.7 6 6v148c0 3.3-2.7 6-6 6H618c-3.3 0-6-2.7-6-6z" stroke="#5e5e5e" stroke-width="3" fill="#fff"/><use xlink:href="#prefix__l" transform="translate(619.253 625.653)"/><use xlink:href="#prefix__m" transform="translate(704.315 625.653)"/><use xlink:href="#prefix__d" transform="translate(661.815 652.32)"/><path d="M612 834c0-3.3 2.7-6 6-6h148c3.3 0 6 2.7 6 6v148c0 3.3-2.7 6-6 6H618c-3.3 0-6-2.7-6-6z" stroke="#5e5e5e" stroke-width="3" fill="#fff"/><path d="M628 828v160m128-160v160" stroke="#5e5e5e" stroke-width="3" fill="none"/><use xlink:href="#prefix__n" transform="translate(645.179 885.778)"/><use xlink:href="#prefix__o" transform="translate(704.377 885.778)"/><use xlink:href="#prefix__p" transform="translate(652.617 912.444)"/><use xlink:href="#prefix__q" transform="translate(690.827 912.444)"/><use xlink:href="#prefix__r" transform="translate(638.296 939.111)"/><use xlink:href="#prefix__s" transform="translate(691.383 939.111)"/><path d="M692 718.5V808" stroke="#5e5e5e" stroke-width="2" fill="none"/><path d="M693 718.53h-2v-1.03h2" fill="#5e5e5e"/><path d="M692 823.26L687.36 809h9.28z" stroke="#5e5e5e" stroke-width="2" fill="#5e5e5e"/><path d="M612 1074c0-3.3 2.7-6 6-6h148c3.3 0 6 2.7 6 6v148c0 3.3-2.7 6-6 6H618c-3.3 0-6-2.7-6-6z" stroke="#5e5e5e" stroke-width="3" fill="#fff"/><use xlink:href="#prefix__t" transform="translate(622.309 1137.653)"/><use xlink:href="#prefix__u" transform="translate(662.988 1137.653)"/><use xlink:href="#prefix__v" transform="translate(693.852 1137.653)"/><use xlink:href="#prefix__w" transform="translate(737 1137.653)"/><use xlink:href="#prefix__x" transform="translate(662.37 1164.32)"/><path d="M692 990.5v57.5" stroke="#5e5e5e" stroke-width="2" fill="none"/><path d="M693 990.53h-2v-1.03h2" fill="#5e5e5e"/><path d="M692 1063.26l-4.64-14.26h9.28z" stroke="#5e5e5e" stroke-width="2" fill="#5e5e5e"/><a xlink:href="https://www.figma.com/file/qfazqgmvLh2hTWgDiXErxR/MartinFanClub" target="_blank"><path d="M12 18c0-3.3 2.7-6 6-6h108c3.3 0 6 2.7 6 6v84c0 3.3-1.84 7.96-4.1 10.38l-51.8 55.24c-2.26 2.42-5.94 2.42-8.2 0l-51.8-55.24C13.84 109.96 12 105.3 12 102z" stroke="#5e5e5e" stroke-width="3" fill="#fff"/><use xlink:href="#prefix__y" transform="translate(41.753 95.715)"/><path class="prefix__lucid-link prefix__lucid-hotspot prefix__lucid-overlay-hotspot" d="M12 18c0-3.3 2.7-6 6-6h108c3.3 0 6 2.7 6 6v84c0 3.3-1.84 7.96-4.1 10.38l-51.8 55.24c-2.26 2.42-5.94 2.42-8.2 0l-51.8-55.24C13.84 109.96 12 105.3 12 102z" fill="none"/></a><defs><g id="prefix__a"><use transform="rotate(.413) scale(.06173)" xlink:href="#prefix__z"/><use transform="matrix(.06173 0 0 .06173 12.346 0)" xlink:href="#prefix__A"/><use transform="matrix(.06173 0 0 .06173 24.691 0)" xlink:href="#prefix__B"/><use transform="matrix(.06173 0 0 .06173 37.037 0)" xlink:href="#prefix__C"/></g><g id="prefix__b"><use transform="rotate(.413) scale(.06173)" xlink:href="#prefix__D"/><use transform="matrix(.06173 0 0 .06173 12.346 0)" xlink:href="#prefix__E"/><use transform="matrix(.06173 0 0 .06173 16.543 0)" xlink:href="#prefix__A"/><use transform="matrix(.06173 0 0 .06173 28.889 0)" xlink:href="#prefix__F"/><use transform="matrix(.06173 0 0 .06173 40 0)" xlink:href="#prefix__F"/><use transform="matrix(.06173 0 0 .06173 51.111 0)" xlink:href="#prefix__C"/><use transform="matrix(.06173 0 0 .06173 63.457 0)" xlink:href="#prefix__G"/><use transform="matrix(.06173 0 0 .06173 75.802 0)" xlink:href="#prefix__H"/><use transform="matrix(.06173 0 0 .06173 80.679 0)" xlink:href="#prefix__I"/></g><g id="prefix__c"><use transform="rotate(.413) scale(.06173)" xlink:href="#prefix__F"/><use transform="matrix(.06173 0 0 .06173 11.111 0)" xlink:href="#prefix__J"/><use transform="matrix(.06173 0 0 .06173 23.457 0)" xlink:href="#prefix__K"/><use transform="matrix(.06173 0 0 .06173 35.802 0)" xlink:href="#prefix__K"/><use transform="matrix(.06173 0 0 .06173 48.148 0)" xlink:href="#prefix__C"/><use transform="matrix(.06173 0 0 .06173 60.494 0)" xlink:href="#prefix__L"/><use transform="matrix(.06173 0 0 .06173 71.605 0)" xlink:href="#prefix__H"/><use transform="matrix(.06173 0 0 .06173 76.481 0)" xlink:href="#prefix__J"/><use transform="matrix(.06173 0 0 .06173 88.827 0)" xlink:href="#prefix__K"/></g><g id="prefix__d"><use transform="rotate(.413) scale(.06173)" xlink:href="#prefix__A"/><use transform="matrix(.06173 0 0 .06173 12.346 0)" xlink:href="#prefix__D"/><use transform="matrix(.06173 0 0 .06173 24.691 0)" xlink:href="#prefix__M"/><use transform="matrix(.06173 0 0 .06173 43.148 0)" xlink:href="#prefix__H"/><use transform="matrix(.06173 0 0 .06173 48.025 0)" xlink:href="#prefix__K"/></g><g id="prefix__e"><use transform="rotate(.413) scale(.06173)" xlink:href="#prefix__F"/><use transform="matrix(.06173 0 0 .06173 11.111 0)" xlink:href="#prefix__J"/><use transform="matrix(.06173 0 0 .06173 23.457 0)" xlink:href="#prefix__K"/><use transform="matrix(.06173 0 0 .06173 35.802 0)" xlink:href="#prefix__K"/><use transform="matrix(.06173 0 0 .06173 48.148 0)" xlink:href="#prefix__C"/><use transform="matrix(.06173 0 0 .06173 60.494 0)" xlink:href="#prefix__L"/><use transform="matrix(.06173 0 0 .06173 71.605 0)" xlink:href="#prefix__H"/><use transform="matrix(.06173 0 0 .06173 76.481 0)" xlink:href="#prefix__J"/><use transform="matrix(.06173 0 0 .06173 88.827 0)" xlink:href="#prefix__K"/></g><g id="prefix__f"><use transform="rotate(.413) scale(.06173)" xlink:href="#prefix__G"/><use transform="matrix(.06173 0 0 .06173 12.346 0)" xlink:href="#prefix__N"/><use transform="matrix(.06173 0 0 .06173 23.457 0)" xlink:href="#prefix__C"/><use transform="matrix(.06173 0 0 .06173 35.802 0)" xlink:href="#prefix__O"/></g><g id="prefix__g"><use transform="rotate(.413) scale(.06173)" xlink:href="#prefix__P"/><use transform="matrix(.06173 0 0 .06173 6.173 0)" xlink:href="#prefix__A"/><use transform="matrix(.06173 0 0 .06173 18.519 0)" xlink:href="#prefix__Q"/><use transform="matrix(.06173 0 0 .06173 30.864 0)" xlink:href="#prefix__I"/><use transform="matrix(.06173 0 0 .06173 35.74 0)" xlink:href="#prefix__C"/><use transform="matrix(.06173 0 0 .06173 48.086 0)" xlink:href="#prefix__A"/><use transform="matrix(.06173 0 0 .06173 60.432 0)" xlink:href="#prefix__G"/></g><g id="prefix__h"><use transform="rotate(.413) scale(.06173)" xlink:href="#prefix__R"/><use transform="matrix(.06173 0 0 .06173 11.111 0)" xlink:href="#prefix__G"/><use transform="matrix(.06173 0 0 .06173 23.457 0)" xlink:href="#prefix__C"/></g><g id="prefix__i"><use transform="rotate(.413) scale(.06173)" xlink:href="#prefix__P"/><use transform="matrix(.06173 0 0 .06173 6.173 0)" xlink:href="#prefix__A"/><use transform="matrix(.06173 0 0 .06173 18.519 0)" xlink:href="#prefix__Q"/><use transform="matrix(.06173 0 0 .06173 30.864 0)" xlink:href="#prefix__I"/><use transform="matrix(.06173 0 0 .06173 35.74 0)" xlink:href="#prefix__C"/><use transform="matrix(.06173 0 0 .06173 48.086 0)" xlink:href="#prefix__A"/><use transform="matrix(.06173 0 0 .06173 60.432 0)" xlink:href="#prefix__G"/></g><g id="prefix__j"><use transform="rotate(.413) scale(.06173)" xlink:href="#prefix__R"/><use transform="matrix(.06173 0 0 .06173 11.111 0)" xlink:href="#prefix__G"/><use transform="matrix(.06173 0 0 .06173 23.457 0)" xlink:href="#prefix__C"/></g><g id="prefix__k"><use transform="rotate(.413) scale(.06173)" xlink:href="#prefix__D"/><use transform="matrix(.06173 0 0 .06173 12.346 0)" xlink:href="#prefix__H"/><use transform="matrix(.06173 0 0 .06173 17.222 0)" xlink:href="#prefix__A"/><use transform="matrix(.06173 0 0 .06173 29.568 0)" xlink:href="#prefix__B"/><use transform="matrix(.06173 0 0 .06173 41.914 0)" xlink:href="#prefix__O"/><use transform="matrix(.06173 0 0 .06173 49.26 0)" xlink:href="#prefix__A"/><use transform="matrix(.06173 0 0 .06173 61.605 0)" xlink:href="#prefix__M"/><use transform="matrix(.06173 0 0 .06173 80.062 0)" xlink:href="#prefix__M"/><use transform="matrix(.06173 0 0 .06173 98.519 0)" xlink:href="#prefix__M"/><use transform="matrix(.06173 0 0 .06173 116.975 0)" xlink:href="#prefix__C"/></g><g id="prefix__l"><use transform="rotate(.413) scale(.06173)" xlink:href="#prefix__F"/><use transform="matrix(.06173 0 0 .06173 11.111 0)" xlink:href="#prefix__O"/><use transform="matrix(.06173 0 0 .06173 18.457 0)" xlink:href="#prefix__S"/><use transform="matrix(.06173 0 0 .06173 30.802 0)" xlink:href="#prefix__A"/><use transform="matrix(.06173 0 0 .06173 43.148 0)" xlink:href="#prefix__P"/><use transform="matrix(.06173 0 0 .06173 49.321 0)" xlink:href="#prefix__H"/><use transform="matrix(.06173 0 0 .06173 54.198 0)" xlink:href="#prefix__J"/><use transform="matrix(.06173 0 0 .06173 66.543 0)" xlink:href="#prefix__K"/></g><g id="prefix__m"><use transform="rotate(.413) scale(.06173)" xlink:href="#prefix__F"/><use transform="matrix(.06173 0 0 .06173 11.111 0)" xlink:href="#prefix__M"/><use transform="matrix(.06173 0 0 .06173 29.568 0)" xlink:href="#prefix__z"/><use transform="matrix(.06173 0 0 .06173 41.914 0)" xlink:href="#prefix__P"/><use transform="matrix(.06173 0 0 .06173 48.086 0)" xlink:href="#prefix__C"/></g><g id="prefix__n"><use transform="rotate(.413) scale(.06173)" xlink:href="#prefix__C"/><use transform="matrix(.06173 0 0 .06173 12.346 0)" xlink:href="#prefix__R"/><use transform="matrix(.06173 0 0 .06173 23.457 0)" xlink:href="#prefix__J"/><use transform="matrix(.06173 0 0 .06173 35.802 0)" xlink:href="#prefix__H"/><use transform="matrix(.06173 0 0 .06173 40.679 0)" xlink:href="#prefix__C"/></g><g id="prefix__o"><use transform="rotate(.413) scale(.06173)" xlink:href="#prefix__I"/><use transform="matrix(.06173 0 0 .06173 4.877 0)" xlink:href="#prefix__H"/><use transform="matrix(.06173 0 0 .06173 9.753 0)" xlink:href="#prefix__C"/><use transform="matrix(.06173 0 0 .06173 22.099 0)" xlink:href="#prefix__K"/></g><g id="prefix__p"><use transform="rotate(.413) scale(.06173)" xlink:href="#prefix__z"/><use transform="matrix(.06173 0 0 .06173 12.346 0)" xlink:href="#prefix__A"/><use transform="matrix(.06173 0 0 .06173 24.691 0)" xlink:href="#prefix__O"/></g><g id="prefix__q"><use transform="rotate(.413) scale(.06173)" xlink:href="#prefix__M"/><use transform="matrix(.06173 0 0 .06173 18.457 0)" xlink:href="#prefix__A"/><use transform="matrix(.06173 0 0 .06173 30.802 0)" xlink:href="#prefix__H"/><use transform="matrix(.06173 0 0 .06173 35.679 0)" xlink:href="#prefix__I"/></g><g id="prefix__r"><use transform="rotate(.413) scale(.06173)" xlink:href="#prefix__A"/><use transform="matrix(.06173 0 0 .06173 12.346 0)" xlink:href="#prefix__R"/><use transform="matrix(.06173 0 0 .06173 23.457 0)" xlink:href="#prefix__C"/><use transform="matrix(.06173 0 0 .06173 35.802 0)" xlink:href="#prefix__F"/></g><g id="prefix__s"><use transform="rotate(.413) scale(.06173)" xlink:href="#prefix__P"/><use transform="matrix(.06173 0 0 .06173 6.173 0)" xlink:href="#prefix__J"/><use transform="matrix(.06173 0 0 .06173 18.519 0)" xlink:href="#prefix__T"/><use transform="matrix(.06173 0 0 .06173 29.63 0)" xlink:href="#prefix__C"/><use transform="matrix(.06173 0 0 .06173 41.975 0)" xlink:href="#prefix__K"/></g><g id="prefix__t"><use transform="rotate(.413) scale(.06173)" xlink:href="#prefix__I"/><use transform="matrix(.06173 0 0 .06173 4.877 0)" xlink:href="#prefix__N"/><use transform="matrix(.06173 0 0 .06173 15.988 0)" xlink:href="#prefix__C"/><use transform="matrix(.06173 0 0 .06173 28.333 0)" xlink:href="#prefix__P"/></g><g id="prefix__u"><use transform="rotate(.413) scale(.06173)" xlink:href="#prefix__D"/><use transform="matrix(.06173 0 0 .06173 12.346 0)" xlink:href="#prefix__G"/></g><g id="prefix__v"><use transform="rotate(.413) scale(.06173)" xlink:href="#prefix__M"/><use transform="matrix(.06173 0 0 .06173 18.457 0)" xlink:href="#prefix__J"/><use transform="matrix(.06173 0 0 .06173 30.802 0)" xlink:href="#prefix__P"/></g><g id="prefix__w"><use transform="rotate(.413) scale(.06173)" xlink:href="#prefix__D"/><use transform="matrix(.06173 0 0 .06173 12.346 0)" xlink:href="#prefix__C"/></g><g id="prefix__x"><use transform="rotate(.413) scale(.06173)" xlink:href="#prefix__z"/><use transform="matrix(.06173 0 0 .06173 12.346 0)" xlink:href="#prefix__A"/><use transform="matrix(.06173 0 0 .06173 24.691 0)" xlink:href="#prefix__N"/><use transform="matrix(.06173 0 0 .06173 35.802 0)" xlink:href="#prefix__N"/><use transform="matrix(.06173 0 0 .06173 46.914 0)" xlink:href="#prefix__C"/></g><g id="prefix__y"><use transform="rotate(.413) scale(.06173)" xlink:href="#prefix__D"/><use transform="matrix(.06173 0 0 .06173 12.346 0)" xlink:href="#prefix__C"/><use transform="matrix(.06173 0 0 .06173 24.691 0)" xlink:href="#prefix__N"/><use transform="matrix(.06173 0 0 .06173 35.802 0)" xlink:href="#prefix__B"/><use transform="matrix(.06173 0 0 .06173 48.148 0)" xlink:href="#prefix__K"/></g><path fill="#333" d="M115-194c55 1 70 41 70 98S169 2 115 4C84 4 66-9 55-30l1 105H24l-1-265h31l2 30c10-21 28-34 59-34zm-8 174c40 0 45-34 45-75s-6-73-45-74c-42 0-51 32-51 76 0 43 10 73 51 73" id="prefix__z"/><path fill="#333" d="M141-36C126-15 110 5 73 4 37 3 15-17 15-53c-1-64 63-63 125-63 3-35-9-54-41-54-24 1-41 7-42 31l-33-3c5-37 33-52 76-52 45 0 72 20 72 64v82c-1 20 7 32 28 27v20c-31 9-61-2-59-35zM48-53c0 20 12 33 32 33 41-3 63-29 60-74-43 2-92-5-92 41" id="prefix__A"/><path fill="#333" d="M177-190C167-65 218 103 67 71c-23-6-38-20-44-43l32-5c15 47 100 32 89-28v-30C133-14 115 1 83 1 29 1 15-40 15-95c0-56 16-97 71-98 29-1 48 16 59 35 1-10 0-23 2-32h30zM94-22c36 0 50-32 50-73 0-42-14-75-50-75-39 0-46 34-46 75s6 73 46 73" id="prefix__B"/><path fill="#333" d="M100-194c63 0 86 42 84 106H49c0 40 14 67 53 68 26 1 43-12 49-29l28 8c-11 28-37 45-77 45C44 4 14-33 15-96c1-61 26-98 85-98zm52 81c6-60-76-77-97-28-3 7-6 17-6 28h103" id="prefix__C"/><path fill="#333" d="M85-194c31 0 48 13 60 33l-1-100h32l1 261h-30c-2-10 0-23-3-31C134-8 116 4 85 4 32 4 16-35 15-94c0-66 23-100 70-100zm9 24c-40 0-46 34-46 75 0 40 6 74 45 74 42 0 51-32 51-76 0-42-9-74-50-73" id="prefix__D"/><path fill="#333" d="M47-170H22l-4-78h33" id="prefix__E"/><path fill="#333" d="M96-169c-40 0-48 33-48 73s9 75 48 75c24 0 41-14 43-38l32 2c-6 37-31 61-74 61-59 0-76-41-82-99-10-93 101-131 147-64 4 7 5 14 7 22l-32 3c-4-21-16-35-41-35" id="prefix__F"/><path fill="#333" d="M84 4C-5 8 30-112 23-190h32v120c0 31 7 50 39 49 72-2 45-101 50-169h31l1 190h-30c-1-10 1-25-2-33-11 22-28 36-60 37" id="prefix__G"/><path fill="#333" d="M24-231v-30h32v30H24zM24 0v-190h32V0H24" id="prefix__H"/><path fill="#333" d="M24 0v-261h32V0H24" id="prefix__I"/><path fill="#333" d="M100-194c62-1 85 37 85 99 1 63-27 99-86 99S16-35 15-95c0-66 28-99 85-99zM99-20c44 1 53-31 53-75 0-43-8-75-51-75s-53 32-53 75 10 74 51 75" id="prefix__J"/><path fill="#333" d="M117-194c89-4 53 116 60 194h-32v-121c0-31-8-49-39-48C34-167 62-67 57 0H25l-1-190h30c1 10-1 24 2 32 11-22 29-35 61-36" id="prefix__K"/><path fill="#333" d="M141 0L90-78 38 0H4l68-98-65-92h35l48 74 47-74h35l-64 92 68 98h-35" id="prefix__L"/><path fill="#333" d="M210-169c-67 3-38 105-44 169h-31v-121c0-29-5-50-35-48C34-165 62-65 56 0H25l-1-190h30c1 10-1 24 2 32 10-44 99-50 107 0 11-21 27-35 58-36 85-2 47 119 55 194h-31v-121c0-29-5-49-35-48" id="prefix__M"/><path fill="#333" d="M135-143c-3-34-86-38-87 0 15 53 115 12 119 90S17 21 10-45l28-5c4 36 97 45 98 0-10-56-113-15-118-90-4-57 82-63 122-42 12 7 21 19 24 35" id="prefix__N"/><path fill="#333" d="M114-163C36-179 61-72 57 0H25l-1-190h30c1 12-1 29 2 39 6-27 23-49 58-41v29" id="prefix__O"/><path fill="#333" d="M59-47c-2 24 18 29 38 22v24C64 9 27 4 27-40v-127H5v-23h24l9-43h21v43h35v23H59v120" id="prefix__P"/><path fill="#333" d="M115-194c53 0 69 39 70 98 0 66-23 100-70 100C84 3 66-7 56-30L54 0H23l1-261h32v101c10-23 28-34 59-34zm-8 174c40 0 45-34 45-75 0-40-5-75-45-74-42 0-51 32-51 76 0 43 10 73 51 73" id="prefix__Q"/><path fill="#333" d="M108 0H70L1-190h34L89-25l56-165h34" id="prefix__R"/><path fill="#333" d="M100-194c63 0 86 42 84 106H49c0 40 14 67 53 68 26 1 43-12 49-29l28 8c-11 28-37 45-77 45C44 4 14-33 15-96c1-61 26-98 85-98zm52 81c6-60-76-77-97-28-3 7-6 17-6 28h103zm-74-98c8-23 27-35 38-54h36v5l-58 49H78" id="prefix__S"/><path fill="#333" d="M143 0L79-87 56-68V0H24v-261h32v163l83-92h37l-77 82L181 0h-38" id="prefix__T"/></defs></g></svg>